/* XPM */
static char * bottom_left_active_xpm[] = {
"24 5 3 1",
" 	c None",
".	c #141516",
"#	c #484848",
"#.......................",
"#.......................",
"#.......................",
"#.......................",
"########################"};
